<svg viewBox="335 297.5219 380 159.9561" width="5000" height="2104.685526315789" xmlns="http://www.w3.org/2000/svg" xmlns:xlink="http://www.w3.org/1999/xlink" preserveAspectRatio="none"><defs></defs><style>.a6izo4zJpcolor {fill:#8DB698;fill-opacity:1;}.aD6z1nYkhcolor {fill:#8DB698;fill-opacity:1;}.agZHjtS7MA0filter-floo {flood-color:#8DB698;flood-opacity:0.5;}.aZqjdeUIT2colors-0 {fill:#858CBC;fill-opacity:1;}.icon3-str {stroke:#5A6186;stroke-opacity:1;}</style><defs>
      <filter
        x="375"
        y="306.1822"
        width="96.399"
        height="100"
        id="gZHjtS7MA"
        filterUnits="userSpaceOnUse"
        primitiveUnits="userSpaceOnUse"
        color-interpolation-filters="sRGB">
        <feMerge><feMergeNode in="SourceGraphic" /></feMerge>
      </filter>
      <filter
        x="335"
        y="297.5219"
        width="380"
        height="159.9561"
        id="global"
        filterUnits="userSpaceOnUse"
        primitiveUnits="userSpaceOnUse"
        color-interpolation-filters="sRGB">
        <feColorMatrix
                        type="matrix"
                        values="0.3333 0.3333 0.3333 0 0 0.3333 0.3333 0.3333 0 0 0.3333 0.3333 0.3333 0 0 0 0 0 1 0"/>
      </filter></defs><g filter="url(#global)"><g opacity="1" transform="rotate(0 335 434.0909)">
<svg width="380" height="23.3871" x="335" y="434.0909" version="1.1" preserveAspectRatio="none" viewBox="1.92 -30.28 497.2 30.6">
  <g transform="matrix(1 0 0 1 0 0)" class="a6izo4zJpcolor"><path id="id-6izo4zJp21" d="M23.60-5.04L23.60-14.16L27.44-14.16L27.44-3.24Q25.36-1.52 22.60-0.60Q19.84 0.32 16.84 0.32L16.84 0.32Q12.60 0.32 9.20-1.54Q5.80-3.40 3.86-6.66Q1.92-9.92 1.92-14L1.92-14Q1.92-18.08 3.86-21.36Q5.80-24.64 9.22-26.48Q12.64-28.32 16.92-28.32L16.92-28.32Q20.28-28.32 23.02-27.22Q25.76-26.12 27.68-24L27.68-24L25.20-21.52Q21.84-24.76 17.08-24.76L17.08-24.76Q13.88-24.76 11.34-23.38Q8.80-22 7.36-19.54Q5.92-17.08 5.92-14L5.92-14Q5.92-10.96 7.36-8.50Q8.80-6.04 11.34-4.64Q13.88-3.24 17.04-3.24L17.04-3.24Q20.80-3.24 23.60-5.04L23.60-5.04Z M57.68-10.48Q57.68-10.04 57.60-9.32L57.60-9.32L40.40-9.32Q40.76-6.52 42.86-4.82Q44.96-3.12 48.08-3.12L48.08-3.12Q51.88-3.12 54.20-5.68L54.20-5.68L56.32-3.20Q54.88-1.52 52.74-0.64Q50.60 0.24 47.96 0.24L47.96 0.24Q44.60 0.24 42.00-1.14Q39.40-2.52 37.98-5Q36.56-7.48 36.56-10.60L36.56-10.60Q36.56-13.68 37.94-16.16Q39.32-18.64 41.74-20.02Q44.16-21.40 47.20-21.40L47.20-21.40Q50.24-21.40 52.62-20.02Q55-18.64 56.34-16.16Q57.68-13.68 57.68-10.48L57.68-10.48ZM47.20-18.16Q44.44-18.16 42.58-16.48Q40.72-14.80 40.40-12.08L40.40-12.08L54-12.08Q53.68-14.76 51.82-16.46Q49.96-18.16 47.20-18.16L47.20-18.16Z M78.32-21.40Q82.36-21.40 84.74-19.06Q87.12-16.72 87.12-12.20L87.12-12.20L87.12 0L83.28 0L83.28-11.76Q83.28-14.84 81.80-16.40Q80.32-17.96 77.56-17.96L77.56-17.96Q74.44-17.96 72.64-16.14Q70.84-14.32 70.84-10.92L70.84-10.92L70.84 0L67 0L67-21.20L70.68-21.20L70.68-18Q71.84-19.64 73.82-20.52Q75.80-21.40 78.32-21.40L78.32-21.40Z M119.12 0L119.12-24.52L109.52-24.52L109.52-28L132.68-28L132.68-24.52L123.08-24.52L123.08 0L119.12 0Z M143.64-17.64Q144.64-19.48 146.60-20.44Q148.56-21.40 151.36-21.40L151.36-21.40L151.36-17.68Q151.04-17.72 150.48-17.72L150.48-17.72Q147.36-17.72 145.58-15.86Q143.80-14 143.80-10.56L143.80-10.56L143.80 0L139.96 0L139.96-21.20L143.64-21.20L143.64-17.64Z M160.08 0L160.08-21.20L163.92-21.20L163.92 0L160.08 0ZM162-25.28Q160.88-25.28 160.14-26Q159.40-26.72 159.40-27.76L159.40-27.76Q159.40-28.80 160.14-29.54Q160.88-30.28 162-30.28L162-30.28Q163.12-30.28 163.86-29.58Q164.60-28.88 164.60-27.84L164.60-27.84Q164.60-26.76 163.86-26.02Q163.12-25.28 162-25.28L162-25.28Z M194.40-10.48Q194.40-10.04 194.32-9.32L194.32-9.32L177.12-9.32Q177.48-6.52 179.58-4.82Q181.68-3.12 184.80-3.12L184.80-3.12Q188.60-3.12 190.92-5.68L190.92-5.68L193.04-3.20Q191.60-1.52 189.46-0.64Q187.32 0.24 184.68 0.24L184.68 0.24Q181.32 0.24 178.72-1.14Q176.12-2.52 174.70-5Q173.28-7.48 173.28-10.60L173.28-10.60Q173.28-13.68 174.66-16.16Q176.04-18.64 178.46-20.02Q180.88-21.40 183.92-21.40L183.92-21.40Q186.96-21.40 189.34-20.02Q191.72-18.64 193.06-16.16Q194.40-13.68 194.40-10.48L194.40-10.48ZM183.92-18.16Q181.16-18.16 179.30-16.48Q177.44-14.80 177.12-12.08L177.12-12.08L190.72-12.08Q190.40-14.76 188.54-16.46Q186.68-18.16 183.92-18.16L183.92-18.16Z M209.80 0.24Q207.20 0.24 204.80-0.46Q202.40-1.16 201.04-2.24L201.04-2.24L202.64-5.28Q204.04-4.28 206.04-3.68Q208.04-3.08 210.08-3.08L210.08-3.08Q215.12-3.08 215.12-5.96L215.12-5.96Q215.12-6.92 214.44-7.48Q213.76-8.04 212.74-8.30Q211.72-8.56 209.84-8.88L209.84-8.88Q207.28-9.28 205.66-9.80Q204.04-10.32 202.88-11.56Q201.72-12.80 201.72-15.04L201.72-15.04Q201.72-17.92 204.12-19.66Q206.52-21.40 210.56-21.40L210.56-21.40Q212.68-21.40 214.80-20.88Q216.92-20.36 218.28-19.48L218.28-19.48L216.64-16.44Q214.04-18.12 210.52-18.12L210.52-18.12Q208.08-18.12 206.80-17.32Q205.52-16.52 205.52-15.20L205.52-15.20Q205.52-14.16 206.24-13.56Q206.96-12.96 208.02-12.68Q209.08-12.40 211.00-12.04L211.00-12.04Q213.56-11.60 215.14-11.10Q216.72-10.60 217.84-9.40Q218.96-8.20 218.96-6.04L218.96-6.04Q218.96-3.16 216.50-1.46Q214.04 0.24 209.80 0.24L209.80 0.24Z M255.60 0.32Q251.40 0.32 248.02-1.54Q244.64-3.40 242.72-6.66Q240.80-9.92 240.80-14L240.80-14Q240.80-18.08 242.72-21.34Q244.64-24.60 248.04-26.46Q251.44-28.32 255.64-28.32L255.64-28.32Q258.92-28.32 261.64-27.22Q264.36-26.12 266.28-23.96L266.28-23.96L263.68-21.44Q260.52-24.76 255.80-24.76L255.80-24.76Q252.68-24.76 250.16-23.36Q247.64-21.96 246.22-19.50Q244.80-17.04 244.80-14L244.80-14Q244.80-10.96 246.22-8.50Q247.64-6.04 250.16-4.64Q252.68-3.24 255.80-3.24L255.80-3.24Q260.48-3.24 263.68-6.60L263.68-6.60L266.28-4.08Q264.36-1.92 261.62-0.80Q258.88 0.32 255.60 0.32L255.60 0.32Z M279.12-17.64Q280.12-19.48 282.08-20.44Q284.04-21.40 286.84-21.40L286.84-21.40L286.84-17.68Q286.52-17.72 285.96-17.72L285.96-17.72Q282.84-17.72 281.06-15.86Q279.28-14 279.28-10.56L279.28-10.56L279.28 0L275.44 0L275.44-21.20L279.12-21.20L279.12-17.64Z M304.44 0.24Q301.28 0.24 298.76-1.16Q296.24-2.56 294.82-5.02Q293.40-7.48 293.40-10.60L293.40-10.60Q293.40-13.72 294.82-16.18Q296.24-18.64 298.76-20.02Q301.28-21.40 304.44-21.40L304.44-21.40Q307.60-21.40 310.10-20.02Q312.60-18.64 314.02-16.18Q315.44-13.72 315.44-10.60L315.44-10.60Q315.44-7.48 314.02-5.02Q312.60-2.56 310.10-1.16Q307.60 0.24 304.44 0.24L304.44 0.24ZM304.44-3.12Q306.48-3.12 308.10-4.06Q309.72-5 310.64-6.70Q311.56-8.40 311.56-10.60L311.56-10.60Q311.56-12.80 310.64-14.50Q309.72-16.20 308.10-17.12Q306.48-18.04 304.44-18.04L304.44-18.04Q302.40-18.04 300.78-17.12Q299.16-16.20 298.22-14.50Q297.28-12.80 297.28-10.60L297.28-10.60Q297.28-8.40 298.22-6.70Q299.16-5 300.78-4.06Q302.40-3.12 304.44-3.12L304.44-3.12Z M330.84 0.24Q328.24 0.24 325.84-0.46Q323.44-1.16 322.08-2.24L322.08-2.24L323.68-5.28Q325.08-4.28 327.08-3.68Q329.08-3.08 331.12-3.08L331.12-3.08Q336.16-3.08 336.16-5.96L336.16-5.96Q336.16-6.92 335.48-7.48Q334.80-8.04 333.78-8.30Q332.76-8.56 330.88-8.88L330.88-8.88Q328.32-9.28 326.70-9.80Q325.08-10.32 323.92-11.56Q322.76-12.80 322.76-15.04L322.76-15.04Q322.76-17.92 325.16-19.66Q327.56-21.40 331.60-21.40L331.60-21.40Q333.72-21.40 335.84-20.88Q337.96-20.36 339.32-19.48L339.32-19.48L337.68-16.44Q335.08-18.12 331.56-18.12L331.56-18.12Q329.12-18.12 327.84-17.32Q326.56-16.52 326.56-15.20L326.56-15.20Q326.56-14.16 327.28-13.56Q328.00-12.96 329.06-12.68Q330.12-12.40 332.04-12.04L332.04-12.04Q334.60-11.60 336.18-11.10Q337.76-10.60 338.88-9.40Q340.00-8.20 340.00-6.04L340.00-6.04Q340.00-3.16 337.54-1.46Q335.08 0.24 330.84 0.24L330.84 0.24Z M354.88 0.24Q352.28 0.24 349.88-0.46Q347.48-1.16 346.12-2.24L346.12-2.24L347.72-5.28Q349.12-4.28 351.12-3.68Q353.12-3.08 355.16-3.08L355.16-3.08Q360.20-3.08 360.20-5.96L360.20-5.96Q360.20-6.92 359.52-7.48Q358.84-8.04 357.82-8.30Q356.80-8.56 354.92-8.88L354.92-8.88Q352.36-9.28 350.74-9.80Q349.12-10.32 347.96-11.56Q346.80-12.80 346.80-15.04L346.80-15.04Q346.80-17.92 349.20-19.66Q351.60-21.40 355.64-21.40L355.64-21.40Q357.76-21.40 359.88-20.88Q362.00-20.36 363.36-19.48L363.36-19.48L361.72-16.44Q359.12-18.12 355.60-18.12L355.60-18.12Q353.16-18.12 351.88-17.32Q350.60-16.52 350.60-15.20L350.60-15.20Q350.60-14.16 351.32-13.56Q352.04-12.96 353.10-12.68Q354.16-12.40 356.08-12.04L356.08-12.04Q358.64-11.60 360.22-11.10Q361.80-10.60 362.92-9.40Q364.04-8.20 364.04-6.04L364.04-6.04Q364.04-3.16 361.58-1.46Q359.12 0.24 354.88 0.24L354.88 0.24Z M378.92 0.24Q376.32 0.24 373.92-0.46Q371.52-1.16 370.16-2.24L370.16-2.24L371.76-5.28Q373.16-4.28 375.16-3.68Q377.16-3.08 379.20-3.08L379.20-3.08Q384.24-3.08 384.24-5.96L384.24-5.96Q384.24-6.92 383.56-7.48Q382.88-8.04 381.86-8.30Q380.84-8.56 378.96-8.88L378.96-8.88Q376.40-9.28 374.78-9.80Q373.16-10.32 372.00-11.56Q370.84-12.80 370.84-15.04L370.84-15.04Q370.84-17.92 373.24-19.66Q375.64-21.40 379.68-21.40L379.68-21.40Q381.80-21.40 383.92-20.88Q386.04-20.36 387.40-19.48L387.40-19.48L385.76-16.44Q383.16-18.12 379.64-18.12L379.64-18.12Q377.20-18.12 375.92-17.32Q374.64-16.52 374.64-15.20L374.64-15.20Q374.64-14.16 375.36-13.56Q376.08-12.96 377.14-12.68Q378.20-12.40 380.12-12.04L380.12-12.04Q382.68-11.60 384.26-11.10Q385.84-10.60 386.96-9.40Q388.08-8.20 388.08-6.04L388.08-6.04Q388.08-3.16 385.62-1.46Q383.16 0.24 378.92 0.24L378.92 0.24Z M407.60-4L408.80-1.24Q407.96-0.52 406.72-0.14Q405.48 0.24 404.16 0.24L404.16 0.24Q400.96 0.24 399.20-1.48Q397.44-3.20 397.44-6.40L397.44-6.40L397.44-18.04L393.84-18.04L393.84-21.20L397.44-21.20L397.44-25.84L401.28-25.84L401.28-21.20L407.36-21.20L407.36-18.04L401.28-18.04L401.28-6.56Q401.28-4.84 402.14-3.92Q403.00-3 404.60-3L404.60-3Q406.36-3 407.60-4L407.60-4Z M417.44 0L417.44-21.20L421.28-21.20L421.28 0L417.44 0ZM419.36-25.28Q418.24-25.28 417.50-26Q416.76-26.72 416.76-27.76L416.76-27.76Q416.76-28.80 417.50-29.54Q418.24-30.28 419.36-30.28L419.36-30.28Q420.48-30.28 421.22-29.58Q421.96-28.88 421.96-27.84L421.96-27.84Q421.96-26.76 421.22-26.02Q420.48-25.28 419.36-25.28L419.36-25.28Z M443.32-4L444.52-1.24Q443.68-0.52 442.44-0.14Q441.20 0.24 439.88 0.24L439.88 0.24Q436.68 0.24 434.92-1.48Q433.16-3.20 433.16-6.40L433.16-6.40L433.16-18.04L429.56-18.04L429.56-21.20L433.16-21.20L433.16-25.84L437-25.84L437-21.20L443.08-21.20L443.08-18.04L437-18.04L437-6.56Q437-4.84 437.86-3.92Q438.72-3 440.32-3L440.32-3Q442.08-3 443.32-4L443.32-4Z M461.68 0.24Q458.44 0.24 455.90-1.16Q453.36-2.56 451.92-5.02Q450.48-7.48 450.48-10.60L450.48-10.60Q450.48-13.72 451.92-16.18Q453.36-18.64 455.90-20.02Q458.44-21.40 461.68-21.40L461.68-21.40Q464.56-21.40 466.82-20.24Q469.08-19.08 470.32-16.88L470.32-16.88L467.40-15Q466.40-16.52 464.92-17.28Q463.44-18.04 461.64-18.04L461.64-18.04Q459.56-18.04 457.90-17.12Q456.24-16.20 455.30-14.50Q454.36-12.80 454.36-10.60L454.36-10.60Q454.36-8.36 455.30-6.66Q456.24-4.96 457.90-4.04Q459.56-3.12 461.64-3.12L461.64-3.12Q463.44-3.12 464.92-3.88Q466.40-4.64 467.40-6.16L467.40-6.16L470.32-4.32Q469.08-2.12 466.82-0.94Q464.56 0.24 461.68 0.24L461.68 0.24Z M490.32-21.40Q494.36-21.40 496.74-19.06Q499.12-16.72 499.12-12.20L499.12-12.20L499.12 0L495.28 0L495.28-11.76Q495.28-14.84 493.80-16.40Q492.32-17.96 489.56-17.96L489.56-17.96Q486.44-17.96 484.64-16.14Q482.84-14.32 482.84-10.92L482.84-10.92L482.84 0L479.00 0L479.00-29.68L482.84-29.68L482.84-18.20Q484.04-19.72 485.98-20.56Q487.92-21.40 490.32-21.40L490.32-21.40Z"/></g>
</svg>
</g><g opacity="1" transform="rotate(0 471.399 297.5219)">
<svg width="198.5414" height="117.3206" x="471.399" y="297.5219" version="1.1" preserveAspectRatio="none" viewBox="0 -31.4258 70.5664 41.6992">
  <g transform="matrix(1 0 0 1 0 0)" class="aD6z1nYkhcolor"><path id="id-D6z1nYkh3" d="M25.76-21.25L25.10-21.46Q25.43-21.80 25.77-22.43Q26.11-23.07 26.40-23.86Q26.68-24.65 26.86-25.52Q27.03-26.39 27.03-27.19L27.03-27.19Q27.03-27.89 26.84-28.53Q26.64-29.16 26.17-29.64Q25.70-30.12 24.93-30.40Q24.16-30.68 23.03-30.68L23.03-30.68Q20.92-30.68 18.87-29.83Q16.82-28.98 14.99-27.43Q13.16-25.88 11.64-23.67Q10.12-21.46 9.08-18.75L9.08-18.75Q8.30-16.72 7.88-14.68Q7.46-12.64 7.46-10.82L7.46-10.82Q7.46-8.09 8.45-6.81Q9.43-5.53 11.50-5.53L11.50-5.53Q14.28-5.53 17.02-7.90Q19.77-10.27 22.58-15.21L22.58-15.21L22.73-15.47L25.31-15.47L24.04-11.89Q22.93-8.71 21.78-6.04Q20.63-3.36 19.41-1.11L19.41-1.11Q21.13-1.29 22.53-1.52Q23.93-1.76 25.12-2.14Q26.31-2.52 27.32-3.11Q28.34-3.69 29.29-4.60Q30.23-5.51 31.14-6.78Q32.05-8.05 33.05-9.79L33.05-9.79L34.04-11.58L34.57-11.21L33.55-9.41Q32.58-7.68 31.66-6.39Q30.74-5.10 29.78-4.15Q28.81-3.20 27.74-2.56Q26.68-1.91 25.38-1.48Q24.08-1.05 22.51-0.78Q20.94-0.51 18.96-0.31L18.96-0.31Q15.98 5.06 12.61 7.67Q9.24 10.27 5.27 10.27L5.27 10.27Q2.60 10.27 1.30 9.18Q0 8.09 0 6.25L0 6.25Q0 4.94 0.66 3.96Q1.33 2.97 2.50 2.25Q3.67 1.52 5.24 1.03Q6.82 0.53 8.62 0.19Q10.43-0.16 12.39-0.39Q14.36-0.63 16.29-0.82L16.29-0.82Q17.11-2.52 17.93-4.52Q18.75-6.52 19.69-8.95L19.69-8.95L20.20-10.27Q19.41-9.24 18.45-8.21Q17.48-7.19 16.34-6.38Q15.20-5.57 13.89-5.07Q12.58-4.57 11.11-4.57L11.11-4.57Q9.63-4.57 8.41-5.13Q7.19-5.68 6.33-6.73Q5.47-7.77 4.99-9.25Q4.51-10.72 4.51-12.54L4.51-12.54Q4.51-13.85 4.77-15.33Q5.02-16.82 5.53-18.36L5.53-18.36Q6.52-21.27 8.25-23.67Q9.98-26.07 12.21-27.80Q14.43-29.53 17.03-30.48Q19.63-31.43 22.36-31.43L22.36-31.43Q23.96-31.43 25.09-31.08Q26.21-30.74 26.91-30.15Q27.62-29.55 27.94-28.76Q28.26-27.97 28.26-27.07L28.26-27.07Q28.26-26.35 28.08-25.60Q27.89-24.84 27.57-24.09Q27.25-23.34 26.78-22.62Q26.31-21.89 25.76-21.25L25.76-21.25ZM5.35 9.32L5.35 9.32Q6.95 9.32 8.34 8.83Q9.73 8.34 10.99 7.23Q12.25 6.11 13.46 4.33Q14.67 2.54 15.94-0.04L15.94-0.04Q12.83 0.23 10.11 0.62Q7.38 1.00 5.35 1.68Q3.32 2.36 2.15 3.44Q0.98 4.51 0.98 6.15L0.98 6.15Q0.98 7.70 2.07 8.51Q3.16 9.32 5.35 9.32Z M32.50-22.36L32.50-23.14L38.20-23.14L40.06-28.26L42.95-28.26L41.09-23.14L46.95-23.14L46.95-22.36L40.80-22.36L36.11-9.47Q35.84-8.71 35.58-7.91Q35.31-7.11 35.11-6.34Q34.90-5.57 34.78-4.85Q34.65-4.14 34.65-3.55L34.65-3.55Q34.65-2.21 35.38-1.41Q36.11-0.61 37.60-0.61L37.60-0.61Q39.04-0.61 40.41-1.15Q41.78-1.70 43.11-2.83Q44.43-3.96 45.74-5.69Q47.05-7.42 48.38-9.79L48.38-9.79L49.39-11.58L49.92-11.21L48.91-9.41Q47.36-6.68 45.92-4.81Q44.47-2.95 43.06-1.80Q41.64-0.64 40.19-0.14Q38.73 0.37 37.17 0.37L37.17 0.37Q35.98 0.37 35.06 0.01Q34.14-0.35 33.53-1.02Q32.91-1.68 32.59-2.62Q32.27-3.55 32.27-4.71L32.27-4.71Q32.27-5.72 32.50-6.93Q32.73-8.14 33.22-9.47L33.22-9.47L37.91-22.36L32.50-22.36Z M64.06-18.46L64.06-18.46Q63.40-18.46 63.02-18.84Q62.64-19.22 62.64-19.88L62.64-19.88Q62.64-20.51 62.97-20.90Q63.30-21.29 63.85-21.29L63.85-21.29Q64.04-21.29 64.22-21.21L64.22-21.21Q64.32-21.17 64.36-21.16Q64.39-21.15 64.43-21.15L64.43-21.15Q64.61-21.15 64.61-21.41L64.61-21.41Q64.61-21.66 64.41-21.90Q64.22-22.15 63.89-22.33Q63.55-22.52 63.12-22.63Q62.68-22.73 62.21-22.73L62.21-22.73Q61.00-22.73 59.76-22.03Q58.52-21.33 57.35-20.11Q56.19-18.89 55.17-17.25Q54.14-15.61 53.38-13.74Q52.62-11.88 52.18-9.88Q51.74-7.89 51.74-5.98L51.74-5.98Q51.74-4.53 52.00-3.52Q52.27-2.50 52.82-1.86Q53.38-1.21 54.26-0.91Q55.14-0.61 56.37-0.61L56.37-0.61Q58.18-0.61 59.91-1.21Q61.64-1.82 63.25-2.98Q64.86-4.14 66.32-5.85Q67.77-7.56 69.02-9.79L69.02-9.79L70.04-11.58L70.57-11.21L69.55-9.41Q66.76-4.45 63.38-2.04Q60 0.37 56.00 0.37L56.00 0.37Q52.36 0.37 50.54-1.50Q48.71-3.38 48.71-6.95L48.71-6.95Q48.71-8.01 48.87-9.12Q49.02-10.23 49.32-11.37L49.32-11.37Q50.02-13.98 51.30-16.21Q52.58-18.44 54.23-20.06Q55.88-21.68 57.80-22.60Q59.73-23.52 61.72-23.52L61.72-23.52Q63.81-23.52 64.90-22.42L64.90-22.42Q65.35-21.97 65.59-21.44Q65.82-20.90 65.82-20.33L65.82-20.33Q65.82-19.47 65.34-18.96Q64.86-18.46 64.06-18.46Z"/></g>
</svg>
</g><g opacity="1" transform="rotate(0 375 306.1822)">
<svg width="96.399" height="100" x="375" y="306.1822" version="1.1" preserveAspectRatio="none" viewBox="3.642046451568603 1.638591170310974 92.68360900878906 96.14586639404295">
  <g transform="matrix(1 0 0 1 0 0)" class="aZqjdeUIT2colors-0"><title>sawing icons</title><path d="M38.23,69.77a21,21,0,0,1-4.06-.39l-2.5,4a3.4,3.4,0,1,1-3.9-2.78c.43-.78.94-1.69,1.56-2.79a18.09,18.09,0,0,1-7.54-7c-.08-.13-.14-.26-.22-.39a18.69,18.69,0,1,0,17,9.42ZM16.43,87.49a3.4,3.4,0,1,1,3.4-3.4A3.4,3.4,0,0,1,16.43,87.49Zm0-10.2a3.4,3.4,0,1,1,3.4-3.4A3.4,3.4,0,0,1,16.43,77.29Zm11.89,10.2a3.4,3.4,0,1,1,3.4-3.4A3.4,3.4,0,0,1,28.32,87.49Z"></path><path d="M87.81,13.84a23.07,23.07,0,0,0-18-2c1.79-4.08,3.32-8.87,1.3-10-3.6-2-11.35,11.54-11.68,12.12a44.23,44.23,0,0,0-4.86,13.54L49.09,37c-8.81-2.78-17.83-3.39-24.37,4.51a15.82,15.82,0,0,0-1.21,18.19,16,16,0,0,0,8.67,7.07c-2.68,4.75-4.47,8-4.41,8l.71-.14s1.92-3,4.76-7.5a18.85,18.85,0,0,0,5,.66,22.37,22.37,0,0,0,4.46-.46.45.45,0,1,0-.17-.89,19.66,19.66,0,0,1-8.76-.12c4.89-7.72,12.18-19.24,17.44-27.61,3,1.06,5.94,2.32,8.72,3.51q2.43,1,4.63,1.94c9,3.59,17.88,3.69,23.79.28,4.31-2.48,6.91-6.66,7.75-12.44C97.21,24.25,94.19,17.63,87.81,13.84ZM61,14.81C65.3,7.22,69.12,3.48,70.18,3.4c.37.74-.33,4.14-2.74,9.24a22.71,22.71,0,0,0-5.06,2.84.45.45,0,0,0-.1.64.46.46,0,0,0,.64.09,22.37,22.37,0,0,1,3.91-2.32c-.52,1-1.09,2.11-1.73,3.25a36.29,36.29,0,0,1-8.62,10A42.84,42.84,0,0,1,61,14.81ZM32.64,66a15.17,15.17,0,0,1-8.35-6.73A14.72,14.72,0,0,1,25.42,42.1c6.15-7.42,14.75-6.9,23.21-4.27C43.73,46.42,37.1,58.07,32.64,66ZM95.19,31.85c-.8,5.48-3.25,9.45-7.3,11.78-6.68,3.86-16.26,2.36-23-.33-1.47-.59-3-1.25-4.62-1.94-2.73-1.17-5.63-2.4-8.58-3.46,2.75-4.39,4.87-7.81,5.67-9.17A37.7,37.7,0,0,0,66.68,18c.13-.22,1.36-2.4,2.6-5.1a22.18,22.18,0,0,1,18.06,1.7C93.39,18.22,96.25,24.5,95.19,31.85Z"></path></g>
</svg>
</g></g></svg>